<svg width="271" height="240" viewBox="0 0 271 240" fill="none" xmlns="http://www.w3.org/2000/svg">
<path d="M26.1039 2.27026C17.841 5.4252 9.57809 12.336 4.77058 20.5989C1.61565 26.0074 0.714239 29.9135 0.1133 38.9276C-1.08858 60.1107 7.17434 81.1435 29.5593 114.496C36.9208 125.463 45.1837 138.383 47.7377 143.04L52.6955 151.754H76.2823H99.8692L90.4044 114.496C85.2964 94.0637 80.9396 76.1858 80.9396 74.8337C80.9396 73.3313 82.442 71.5285 84.0946 70.4769C89.9537 67.3219 92.057 72.2797 102.123 112.993L111.738 151.754H130.818H149.897L151.4 146.045C152.151 143.04 154.254 134.777 156.057 127.716C157.71 120.655 159.813 113.444 160.564 111.491C162.217 107.585 166.874 107.134 169.728 110.59C171.381 112.543 170.93 115.848 167.325 130.421C165.071 140.036 162.818 148.899 162.367 149.801C161.916 151.303 167.926 151.754 189.259 151.754H216.902L221.259 143.791C223.663 139.585 231.775 126.514 239.588 114.946C255.813 90.4581 263.024 76.0356 267.231 59.5097C270.836 45.3877 270.987 39.0778 267.982 29.1623C264.527 17.5942 257.916 9.78201 246.799 4.37355C237.635 -0.133491 236.583 -0.433967 223.362 0.317207C209.09 1.06838 207.437 1.51909 165.973 16.5426C149.296 22.552 128.414 25.2562 116.846 23.0027C112.339 22.1013 108.433 21.5003 108.282 21.8008C107.381 22.7022 119.099 28.2609 129.165 31.5661C141.785 35.9229 167.325 37.1247 183.4 34.2703C196.32 31.8665 199.625 32.7679 199.625 38.4769C199.625 43.2844 196.771 44.336 176.639 46.5895C140.132 50.6459 117.296 44.1858 86.1979 20.4487C65.3152 4.52378 57.503 0.918144 43.3809 0.467439C36.3199 0.16697 29.8598 0.918151 26.1039 2.27026ZM53.5969 5.4252C55.5499 5.72567 56.6016 6.7773 56.1509 7.37824C55.7002 8.12941 56.7518 8.42989 58.4044 7.97919C60.2072 7.52848 61.4091 7.97919 61.4091 9.03083C61.4091 10.0825 62.4607 10.5332 63.6626 10.0825C64.7143 9.63177 66.9678 10.3829 68.4701 11.7351C70.1227 13.0872 70.4232 13.6881 69.3716 12.9369C68.1697 12.1858 66.9678 12.0355 66.5171 12.4862C65.3152 13.5379 71.6251 16.843 73.1274 15.9416C73.8786 15.4909 75.3809 16.5426 76.5828 18.3454C77.7847 19.998 80.1885 21.951 82.1415 22.7022C84.0946 23.4534 85.2964 24.6553 84.6955 25.4064C84.2448 26.1576 84.6955 27.3595 85.5969 27.9604C86.7988 28.5614 86.949 28.4111 86.3481 27.3595C84.0946 23.7538 88.3011 25.7069 91.4561 29.613C93.2589 32.0168 94.1603 32.7679 93.5594 31.5661C92.5077 29.613 92.8082 29.613 94.9115 31.4158C96.2636 32.4675 97.0148 33.9698 96.5641 34.721C96.1134 35.4722 96.7143 36.0731 97.9162 36.0731C99.118 36.0731 100.47 37.1247 101.071 38.3266C101.522 39.5285 102.724 40.5801 103.775 40.5801C105.127 40.5801 104.977 40.1294 103.475 39.0778C100.019 36.8243 102.573 37.275 107.832 39.9792C110.386 41.3313 113.39 42.5332 114.442 42.6834C117.597 43.1341 120.151 45.2374 119.25 46.7398C118.799 47.4909 119.4 47.6412 120.602 47.1905C121.954 46.7398 124.207 46.7398 125.559 47.3407C127.062 48.0919 129.315 48.3924 130.667 48.2421C131.869 48.0919 135.024 48.9933 137.278 50.1952C140.132 51.6975 142.235 51.998 143.137 51.0966C145.09 49.1435 147.494 49.1435 146.292 50.9463C145.39 52.5989 173.785 52.5989 177.09 50.9463C178.292 50.3454 183.55 49.5942 188.808 49.1435C196.47 48.6928 198.123 48.8431 197.522 50.6459C197.071 51.8478 197.372 52.2985 198.273 51.8478C199.024 51.2468 199.325 49.5942 198.874 47.9416C198.273 46.2891 198.574 45.0872 199.625 45.0872C200.527 45.0872 202.029 43.2844 203.081 40.8806C203.982 38.6271 205.484 36.2233 206.386 35.6224C207.287 34.8712 206.836 34.5707 205.334 35.1717C202.78 35.9229 201.879 34.4205 202.63 30.8149C202.78 29.9135 202.48 29.7632 201.879 30.3642C201.428 30.8149 199.174 30.3642 197.071 29.3125C194.818 28.1107 192.414 27.6599 191.512 28.1107C188.057 30.3642 142.987 31.8665 141.635 29.9135C141.184 29.1623 139.982 28.8618 139.081 29.4628C138.029 29.9135 138.48 29.3125 139.982 27.9604C141.634 26.7585 143.738 26.1576 144.94 26.6083C146.142 27.059 148.245 26.4581 149.597 25.4064C151.4 23.9041 151.85 23.9041 150.949 25.106C150.348 26.1576 150.649 27.059 151.4 27.059C152.301 27.059 153.052 26.3078 153.052 25.5567C153.052 24.6552 154.404 24.0543 156.057 24.0543C157.86 24.0543 161.315 23.0027 163.869 21.6506C166.273 20.2984 167.926 19.998 167.475 20.8994C166.874 21.8008 167.174 22.552 167.926 22.552C168.827 22.552 169.578 21.951 169.578 21.3501C169.578 19.2468 181.447 14.7398 184.902 15.6412C186.855 16.0919 187.456 16.0919 186.254 15.6412C183.4 14.2891 199.775 8.27965 212.095 5.8759C217.203 4.82425 224.865 4.07309 229.221 4.22332C237.484 4.22332 250.705 9.18106 250.705 12.1858C250.705 13.2374 251.156 13.5379 251.606 13.0872C252.207 12.4862 254.461 14.4393 256.714 17.2937C258.968 20.1482 261.071 22.1013 261.522 21.8008C262.123 21.1999 262.724 24.3548 263.174 32.167C263.325 35.0215 263.926 36.9745 264.677 36.5238C266.48 35.4722 265.879 38.3266 263.926 40.4299C262.273 41.9323 262.574 42.0825 264.977 41.1811C267.531 40.1294 267.682 40.4299 266.179 42.2327C265.128 43.4346 264.827 46.1388 265.278 48.0919C265.879 50.4956 265.728 51.2468 264.527 50.4956C263.475 49.8947 262.724 50.0449 262.724 50.9463C262.724 51.6975 262.273 53.6506 261.822 55.1529C261.071 57.4064 261.221 57.4064 262.574 55.6036C265.128 51.998 264.527 55.0027 260.32 67.0215C258.066 73.1811 255.663 78.1388 255.062 78.1388C254.311 78.1388 253.71 79.3407 253.71 80.6928C253.71 82.9464 254.01 83.0966 255.212 81.1435C255.963 79.9417 256.714 79.491 256.714 80.0919C256.714 80.8431 255.062 83.5473 252.958 86.2515C250.855 88.9558 249.203 91.66 249.203 92.2609C249.203 94.5144 241.541 104.43 239.738 104.43C238.836 104.43 238.085 105.782 238.386 107.284C238.686 108.937 238.235 109.538 237.334 108.937C236.282 108.486 236.132 108.937 236.583 110.439C237.184 111.641 236.733 113.744 235.682 114.946C232.977 118.101 230.423 117.801 232.827 114.496C234.78 112.242 234.63 112.092 232.376 113.895C230.874 115.097 230.273 116.899 230.724 118.252C231.325 119.904 231.174 120.355 229.822 119.604C228.62 118.702 228.17 119.303 228.47 121.106C228.771 122.759 228.17 123.81 227.118 123.66C225.916 123.36 225.616 124.261 226.217 125.763C226.818 127.416 226.667 127.867 225.315 127.115C224.113 126.364 223.663 126.665 223.813 127.867C224.414 130.27 221.409 136.129 217.503 140.186C216.001 141.838 215.099 143.641 215.4 144.242C216.602 146.195 209.991 147.097 189.409 147.397C168.527 147.848 165.071 146.796 168.226 141.388C170.78 136.73 173.935 123.059 173.034 120.655C172.433 119.003 172.733 118.552 173.785 119.303C176.789 121.106 175.137 109.237 172.132 106.984C170.78 105.932 169.879 104.43 170.329 103.679C171.681 101.575 167.926 100.223 166.123 102.026C164.771 103.378 165.071 103.529 167.325 102.777C168.977 102.176 169.879 102.176 169.428 102.777C168.076 104.129 162.066 105.632 157.259 105.632C153.503 105.632 153.353 105.782 155.757 107.585C157.409 108.937 157.71 109.538 156.358 109.688C155.306 109.688 154.705 110.289 155.156 110.89C155.606 111.491 155.156 114.796 154.404 118.101C153.503 121.256 152.902 125.162 152.902 126.514C152.902 128.017 152.301 129.219 151.4 129.219C150.649 129.219 150.048 131.172 150.048 133.575C150.048 136.129 149.447 138.383 148.696 138.984C147.944 139.435 146.893 141.688 146.442 143.942L145.541 147.998L130.367 147.547C113.541 146.946 113.39 146.946 111.437 132.975C110.987 129.669 110.235 126.665 109.634 126.214C109.184 125.763 108.583 123.81 108.282 121.707C107.982 119.604 106.78 115.097 105.728 111.641C103.475 105.031 103.325 104.73 100.019 87.4534C98.8176 81.444 97.7659 76.1858 97.6157 75.8853C97.6157 75.4346 97.4655 74.0825 97.4655 72.8806C97.4655 71.6788 96.564 70.6271 95.3622 70.6271C94.3105 70.6271 92.2072 69.1248 90.8551 67.1717C89.503 65.3689 88.7518 64.9182 89.3528 66.1201C90.4044 68.0731 90.104 68.0731 88.0007 66.2703C86.0476 64.7679 85.4467 64.7679 85.4467 66.1201C85.4467 67.4722 84.8457 67.4722 82.8927 65.9698C81.2401 64.4675 80.7894 64.4675 81.5406 65.6694C82.1415 66.721 81.9913 67.6224 81.2401 67.6224C80.4889 67.6224 79.1368 69.275 78.2354 71.5285C76.2824 75.7351 77.4842 87.1529 79.7378 87.1529C80.6392 87.1529 80.9396 88.8055 80.6392 90.9088C80.1885 93.0121 80.4889 94.214 81.2401 93.7633C82.1415 93.1623 82.5922 94.6647 82.2917 97.0684C82.1415 99.4722 82.8927 103.378 83.7941 105.932C84.8457 108.336 85.7472 113.294 85.8974 116.749C86.0476 120.355 86.4983 122.308 86.7988 121.256C87.55 119.453 91.4561 133.425 91.9068 139.284C92.057 140.937 92.6579 142.139 93.4091 141.688C94.611 140.937 94.7612 143.04 93.7096 146.045C92.5077 149.05 57.2025 147.998 53.5969 144.693C52.0945 143.341 50.8927 141.688 50.8927 140.937C50.8927 140.036 49.5406 137.782 48.0382 135.679C46.3856 133.726 45.4842 131.022 45.9349 129.82C46.3856 128.618 45.7847 127.716 44.5828 127.716C41.8786 127.716 38.4232 120.655 39.9255 118.252C40.6767 116.899 40.3762 116.899 38.7236 118.252C36.9208 119.754 36.4701 119.453 36.4701 117.2C36.4701 115.397 37.3715 114.646 39.1744 114.946C40.6767 115.247 41.5781 114.946 41.1274 114.195C40.6767 113.444 39.0241 113.144 37.5218 113.444C35.8692 113.744 33.165 112.392 31.2119 110.139C29.2589 107.885 28.3574 106.533 29.1086 106.984C30.01 107.585 30.611 106.083 30.611 103.529C30.7612 100.674 30.1603 99.7727 29.2589 100.674C27.0053 102.928 25.9537 102.477 23.2495 98.4205C20.9959 94.9651 20.9959 94.8149 23.3997 95.5661C24.902 96.0168 24.1509 95.1154 21.5969 93.7633C19.0429 92.2609 17.841 90.9088 18.8927 90.6083C20.0945 90.1576 20.2448 89.4065 19.3434 88.2046C13.1837 80.8431 12.1321 79.1905 12.8833 77.2374C13.334 76.0356 13.0335 75.1342 12.2823 75.1342C10.6297 75.1342 7.32457 66.2703 7.32457 61.7633C7.32457 59.9604 6.72363 58.7586 5.97246 59.2093C5.22128 59.8102 4.77058 56.8055 4.92081 52.4487C5.22128 48.0919 4.92081 45.6881 4.16964 46.89C3.26823 48.0919 2.81753 47.0402 2.81753 43.8853C2.81753 41.1811 4.0194 38.7773 4.77058 39.0778C5.37152 39.5285 5.22128 38.4768 5.37152 36.3736C6.12269 26.6083 7.0241 23.7538 10.179 19.397C11.9819 16.843 14.3856 15.1905 15.287 15.4909C16.1884 15.7914 18.1415 14.5895 19.4936 12.9369C20.9959 11.1341 22.6485 10.3829 23.2495 10.9839C24.0006 11.5848 23.5499 12.7867 22.3481 13.5379C20.9959 14.4393 20.8457 15.0402 21.8973 15.0402C24.6016 15.0402 25.8035 12.1858 23.8504 9.782C22.7988 8.42989 22.6485 7.52848 23.8504 6.77731C24.6016 6.3266 25.3527 6.77731 25.3527 7.82895C25.3527 9.3313 25.6532 9.3313 26.7049 7.67871C27.456 6.47683 28.8082 6.17637 29.8598 6.77731C31.0617 7.52848 31.5124 7.37824 30.7612 6.32659C29.1086 3.62237 42.78 3.02144 53.5969 5.4252ZM19.3434 11.2844C18.2917 12.4862 16.7894 13.5379 16.0382 13.5379C14.3856 13.5379 18.1415 9.18107 19.9443 9.03083C20.6955 9.03083 20.395 10.0825 19.3434 11.2844Z" fill="white"/>
<path d="M52.8826 165.934C49.8779 168.488 49.7276 169.991 49.5774 202.441C49.5774 232.939 49.7276 236.244 52.1314 238.047C54.2347 239.549 71.9624 240 135.361 240C211.531 240 216.188 239.85 218.441 237.296C220.695 234.892 220.995 230.085 220.995 201.239C220.995 168.638 220.995 168.038 217.69 165.784C214.685 163.681 204.319 163.38 135.211 163.38C62.0469 163.38 55.8873 163.53 52.8826 165.934ZM216.188 198.836C216.488 215.211 216.338 230.085 215.887 231.737C215.136 234.742 214.235 234.742 134.61 234.291L54.2347 233.991V204.845C54.2347 188.77 53.784 174.648 53.3333 173.296C52.7323 171.793 53.4835 170.441 55.4365 169.84C57.2394 169.089 93.8967 168.789 137.164 168.789L215.737 169.089L216.188 198.836ZM74.9671 236.545C71.8121 236.845 66.4037 236.845 62.9483 236.545C59.3427 236.244 61.8966 235.944 68.507 235.944C75.1173 235.944 77.9718 236.244 74.9671 236.545ZM182.385 236.545C165.559 236.845 138.216 236.845 121.54 236.545C104.714 236.394 118.385 236.244 151.887 236.244C185.39 236.244 199.061 236.394 182.385 236.545Z" fill="white"/>
<ellipse cx="36.0563" cy="32.1125" rx="30.4225" ry="27.6056" fill="white"/>
<ellipse cx="33.2394" cy="45.0703" rx="32.1127" ry="25.9155" fill="white"/>
<rect x="4.50708" y="52.958" width="50.7042" height="12.3944" fill="white"/>
<rect x="21.4084" y="47.3237" width="56.3381" height="47.324" fill="white"/>
<rect x="7.88721" y="56.3379" width="14.6479" height="16.9014" fill="white"/>
<rect x="10.1409" y="72.1128" width="15.7747" height="7.88733" fill="white"/>
<rect x="12.3943" y="76.6196" width="10.1408" height="9.01409" fill="white"/>
<rect x="16.9014" y="84.5068" width="9.01409" height="9.01409" fill="white"/>
<rect x="33.8027" y="82.2534" width="48.4507" height="34.9296" fill="white"/>
<rect x="47.324" y="114.93" width="41.6902" height="21.4085" fill="white"/>
<rect x="50.7043" y="132.958" width="42.8169" height="14.6479" fill="white"/>
<rect x="66.479" y="140.845" width="29.2958" height="7.88733" fill="white"/>
<rect x="87.8875" y="125.07" width="4.50704" height="9.01409" fill="white"/>
<rect x="80" y="93.521" width="4.50704" height="22.5352" fill="white"/>
<rect x="83.3804" y="107.042" width="3.38028" height="9.01409" fill="white"/>
<rect x="21.4084" y="93.521" width="16.9014" height="5.63381" fill="white"/>
<ellipse cx="32.676" cy="104.789" rx="5.63381" ry="7.88733" fill="white"/>
<circle cx="43.9437" cy="120.563" r="6.76057" fill="white"/>
<circle cx="27.0421" cy="100.282" r="3.38028" fill="white"/>
<ellipse cx="37.1832" cy="117.747" rx="2.25352" ry="2.8169" fill="white"/>
<ellipse cx="45.6339" cy="128.451" rx="3.94366" ry="3.38028" fill="white"/>
<ellipse cx="51.831" cy="137.465" rx="4.50704" ry="2.25352" fill="white"/>
<circle cx="47.8875" cy="132.395" r="2.8169" fill="white"/>
<ellipse cx="52.3943" cy="139.155" rx="2.8169" ry="1.69014" fill="white"/>
<ellipse cx="131.831" cy="104.789" rx="24.7887" ry="43.9437" fill="white"/>
<ellipse cx="200.563" cy="85.0705" rx="51.831" ry="21.9718" fill="white"/>
<ellipse cx="199.437" cy="122.253" rx="27.0423" ry="25.3521" fill="white"/>
<ellipse cx="234.93" cy="42.2534" rx="32.1127" ry="34.3662" fill="white"/>
<ellipse cx="77.7464" cy="46.1974" rx="18.0282" ry="24.7887" fill="white"/>
<ellipse cx="112.676" cy="67.6057" rx="19.1549" ry="21.4085" fill="white"/>
<ellipse cx="183.662" cy="66.4791" rx="45.0704" ry="13.5211" fill="white"/>
<ellipse cx="210.704" cy="20.2817" rx="18.0282" ry="9.01409" fill="white"/>
<ellipse cx="174.648" cy="30.4228" rx="40.5634" ry="3.38028" fill="white"/>
<ellipse cx="185.916" cy="28.7325" rx="42.8169" ry="5.07042" fill="white"/>
<path d="M160 90.1411L170.734 107.043H149.266L160 90.1411Z" fill="white"/>
<rect x="220.845" y="96.9014" width="11.2676" height="28.169" fill="white"/>
<rect x="172.395" y="125.07" width="15.7747" height="22.5352" fill="white"/>
<rect x="166.761" y="100.282" width="19.1549" height="3.38028" fill="white"/>
<rect x="98.0283" y="80" width="23.662" height="11.2676" fill="white"/>
<rect x="99.155" y="89.0142" width="14.6479" height="12.3944" fill="white"/>
<rect x="102.535" y="100.282" width="11.2676" height="10.1408" fill="white"/>
<rect x="104.789" y="105.916" width="10.1408" height="15.7747" fill="white"/>
<rect x="108.169" y="120.563" width="12.3944" height="13.5211" fill="white"/>
<rect x="110.423" y="131.831" width="14.6479" height="11.2676" fill="white"/>
<rect x="113.803" y="139.718" width="18.0282" height="9.01409" fill="white"/>
<rect x="137.465" y="137.465" width="9.01409" height="12.3944" fill="white"/>
<rect x="143.099" y="130.704" width="6.76057" height="14.6479" fill="white"/>
<rect x="167.887" y="100.282" width="21.4085" height="7.88733" fill="white"/>
<rect x="172.395" y="105.916" width="7.88733" height="9.01409" fill="white"/>
<rect x="153.24" y="105.916" width="5.63381" height="4.50704" fill="white"/>
<rect x="146.479" y="69.8594" width="12.3944" height="12.3944" fill="white"/>
<rect x="170.141" y="128.451" width="9.01409" height="19.1549" fill="white"/>
<rect x="183.662" y="141.972" width="15.7747" height="7.88733" fill="white"/>
<rect x="201.69" y="138.592" width="15.7747" height="9.01409" fill="white"/>
<rect x="217.465" y="100.282" width="5.63381" height="10.1408" fill="white"/>
<rect x="218.592" y="123.944" width="10.1408" height="4.50704" fill="white"/>
<rect x="166.761" y="136.338" width="6.76057" height="12.3944" fill="white"/>
<rect x="234.366" y="87.8872" width="14.6479" height="10.1408" fill="white"/>
<rect x="228.732" y="98.0283" width="12.3944" height="12.3944" fill="white"/>
<rect x="236.62" y="95.7749" width="7.88733" height="7.88733" fill="white"/>
<rect x="243.38" y="95.7749" width="4.50704" height="4.50704" fill="white"/>
<rect x="229.859" y="108.169" width="7.88733" height="9.01409" fill="white"/>
<rect x="236.62" y="59.7183" width="18.0282" height="28.169" fill="white"/>
<rect x="251.268" y="52.958" width="12.3944" height="12.3944" fill="white"/>
<rect x="249.014" y="63.0986" width="9.01409" height="13.5211" fill="white"/>
<rect x="254.648" y="63.0986" width="7.88733" height="7.88733" fill="white"/>
<rect x="255.775" y="70.9858" width="4.50704" height="3.38028" fill="white"/>
<rect x="252.395" y="75.4932" width="5.63381" height="3.38028" fill="white"/>
<rect x="252.395" y="76.6196" width="4.50704" height="7.88733" fill="white"/>
<rect x="256.902" y="20.2817" width="6.76057" height="11.2676" fill="white"/>
<rect x="251.268" y="12.3945" width="4.50704" height="7.88733" fill="white"/>
<rect x="201.69" y="5.63379" width="47.324" height="7.88733" fill="white"/>
<rect x="211.831" y="3.38037" width="27.0423" height="4.50704" fill="white"/>
<rect x="246.761" y="7.88721" width="5.63381" height="5.63381" fill="white"/>
<rect x="137.465" y="24.7886" width="27.0423" height="5.63381" fill="white"/>
<g clip-path="url(#clip0_31_331)">
<rect x="149.732" y="22.5352" width="52" height="3" fill="white"/>
<rect x="158.732" y="19.5352" width="27" height="4" fill="white"/>
<rect x="157.732" y="19.5352" width="26" height="4" fill="white"/>
</g>
<rect x="185.916" y="11.2676" width="30.4225" height="12.3944" fill="white"/>
<rect x="190.423" y="7.88721" width="13.5211" height="5.63381" fill="white"/>
<rect x="163.38" y="19.1548" width="24.7887" height="5.63381" fill="white"/>
<rect x="172.395" y="16.9014" width="22.5352" height="5.63381" fill="white"/>
<rect x="176.901" y="14.6479" width="14.6479" height="3.38028" fill="white"/>
<rect x="170.141" y="16.9014" width="4.50704" height="3.38028" fill="white"/>
<rect x="161.127" y="20.2817" width="6.76057" height="5.63381" fill="white"/>
<rect x="200.563" y="30.4224" width="4.50704" height="9.01409" fill="white"/>
<rect x="169.014" y="49.5776" width="48.4507" height="10.1408" fill="white"/>
<rect x="184.789" y="46.1973" width="22.5352" height="4.50704" fill="white"/>
<rect x="199.437" y="40.5635" width="7.88733" height="10.1408" fill="white"/>
<rect x="197.183" y="43.9438" width="4.50704" height="4.50704" fill="white"/>
<rect x="119.437" y="43.9438" width="7.88733" height="10.1408" fill="white"/>
<rect x="125.071" y="46.1973" width="11.2676" height="20.2817" fill="white"/>
<rect x="134.084" y="48.4507" width="38.3099" height="18.0282" fill="white"/>
<rect x="89.0142" y="27.0425" width="5.63381" height="23.662" fill="white"/>
<rect x="75.4929" y="68.7324" width="4.50704" height="5.63381" fill="white"/>
<rect x="84.5071" y="52.958" width="25.9155" height="14.6479" fill="white"/>
<rect x="86.7605" y="31.5493" width="15.7747" height="27.0423" rx="1" fill="white"/>
<rect x="93.5212" y="30.4224" width="3.38028" height="1.12676" fill="white"/>
<rect x="101.408" y="36.0562" width="6.76057" height="16.9014" fill="white"/>
<rect x="107.042" y="39.4365" width="9.01409" height="10.1408" fill="white"/>
<rect x="114.93" y="41.6899" width="4.50704" height="10.1408" fill="white"/>
<rect x="90.1409" y="66.479" width="12.3944" height="4.50704" fill="white"/>
<rect x="22.5352" y="5.63379" width="7.88733" height="2.25352" fill="white"/>
<rect x="30.4226" y="3.38037" width="25.9155" height="10.1408" fill="white"/>
<rect x="52.9578" y="5.63379" width="9.01409" height="18.0282" fill="white"/>
<rect x="56.3381" y="19.1548" width="27.0423" height="10.1408" fill="white"/>
<rect x="58.5916" y="9.01416" width="11.2676" height="13.5211" fill="white"/>
<rect x="67.6057" y="14.6479" width="10.1408" height="11.2676" fill="white"/>
<rect x="68.7324" y="12.3945" width="3.38028" height="2.25352" fill="white"/>
<rect x="52.9578" y="166.761" width="164.507" height="69.8592" fill="white"/>
<defs>
<clipPath id="clip0_31_331">
<rect width="58.5916" height="6.76057" fill="white" transform="translate(148.732 22.5352)"/>
</clipPath>
</defs>
</svg>
